<?xml version="1.0" encoding="UTF-8" standalone="no"?>
<svg
   viewBox="0 0 512 512"
   version="1.1"
   id="svg4"
   width="512"
   height="512"
   xmlns="http://www.w3.org/2000/svg"
   xmlns:svg="http://www.w3.org/2000/svg">
  <defs
     id="defs8" />
  <!--! Font Awesome Pro 6.4.2 by @fontawesome - https://fontawesome.com License - https://fontawesome.com/license (Commercial License) Copyright 2023 Fonticons, Inc. -->
  <path
     d="M 32,96 C 32,78.3 46.3,64 64,64 h 384 c 17.7,0 32,14.3 32,32 0,17.7 -14.3,32 -32,32 H 64 C 46.3,128 32,113.7 32,96 Z m 0,160 c 0,-17.7 14.3,-32 32,-32 h 384 c 17.7,0 32,14.3 32,32 0,17.7 -14.3,32 -32,32 H 64 C 46.3,288 32,273.7 32,256 Z m 448,160 c 0,17.7 -14.3,32 -32,32 H 64 c -17.7,0 -32,-14.3 -32,-32 0,-17.7 14.3,-32 32,-32 h 384 c 17.7,0 32,14.3 32,32 z"
     id="path2" />
</svg>
