<?xml version="1.0" encoding="UTF-8" standalone="no"?>
<svg
   viewBox="0 0 512 512.00001"
   version="1.1"
   id="svg985"
   width="512"
   height="512"
   xmlns="http://www.w3.org/2000/svg"
   xmlns:svg="http://www.w3.org/2000/svg">
  <defs
     id="defs979">
    <style
       id="style977">.cls-1{fill:#5398b2;}</style>
  </defs>
  <g
     id="Layer_2"
     data-name="Layer 2"
     transform="matrix(7.8800316,0,0,7.8800316,35.634916,7.6779777)"
     style="fill:#000000;fill-opacity:1">
    <g
       id="Layer_1-2"
       data-name="Layer 1"
       style="fill:#000000;fill-opacity:1">
      <path
         class="cls-1"
         d="m 55.93,34 v 24 a 6,6 0 0 1 -6,6 H 6 A 6,6 0 0 1 0,58 V 34 a 6,6 0 0 1 6,-6 h 3 v -9 a 19,19 0 1 1 37.95,0 v 9 h 3 a 6,6 0 0 1 5.98,6 z M 37,19 a 9,9 0 0 0 -18,0 v 9 h 18 z"
         id="path981"
         style="fill:#000000;fill-opacity:1" />
    </g>
  </g>
</svg>
