<?xml version="1.0" encoding="UTF-8" standalone="no"?>
<svg
   xmlns:dc="http://purl.org/dc/elements/1.1/"
   xmlns:cc="http://creativecommons.org/ns#"
   xmlns:rdf="http://www.w3.org/1999/02/22-rdf-syntax-ns#"
   xmlns:svg="http://www.w3.org/2000/svg"
   xmlns="http://www.w3.org/2000/svg"
   id="svg4"
   version="1.1"
   viewBox="0 0 16384 16384"
   width="512"
   height="512">
  <metadata
     id="metadata10">
    <rdf:RDF>
      <cc:Work
         rdf:about="">
        <dc:format>image/svg+xml</dc:format>
        <dc:type
           rdf:resource="http://purl.org/dc/dcmitype/StillImage" />
        <dc:title></dc:title>
      </cc:Work>
    </rdf:RDF>
  </metadata>
  <defs
     id="defs8" />
  <!--!Font Awesome Free 6.5.1 by @fontawesome - https://fontawesome.com License - https://fontawesome.com/license/free Copyright 2023 Fonticons, Inc.-->
  <path
     style="opacity:1;fill:#000000;stroke-width:32;fill-opacity:1"
     id="path2"
     d="M 5350.4,566.4 C 5523.2,217.6 5878.4,0 6265.6,0 h 3852.8 c 387.2,0 742.4,217.6 915.2,566.4 L 11264,1024 h 3072 c 566.4,0 1024,457.6 1024,1024 0,566.4 -457.6,1024 -1024,1024 H 2048 c -566.4,0 -1024,-457.6 -1024,-1024 0,-566.4 457.6,-1024 1024,-1024 H 5120 Z M 2048,4096 h 12288 v 10240 c 0,1129.6 -918.4,2048 -2048,2048 H 4096 c -1129.6,0 -2048,-918.4 -2048,-2048 z m 3072,2048 c -281.6,0 -512,230.4 -512,512 v 7168 c 0,281.6 230.4,512 512,512 281.6,0 512,-230.4 512,-512 V 6656 c 0,-281.6 -230.4,-512 -512,-512 z m 3072,0 c -281.6,0 -512,230.4 -512,512 v 7168 c 0,281.6 230.4,512 512,512 281.6,0 512,-230.4 512,-512 V 6656 c 0,-281.6 -230.4,-512 -512,-512 z m 3072,0 c -281.6,0 -512,230.4 -512,512 v 7168 c 0,281.6 230.4,512 512,512 281.6,0 512,-230.4 512,-512 V 6656 c 0,-281.6 -230.4,-512 -512,-512 z" />
</svg>
