<?xml version="1.0" encoding="UTF-8" standalone="no"?>
<svg
   viewBox="0 0 512 512"
   version="1.1"
   id="svg4"
   width="512"
   height="512"
   xmlns="http://www.w3.org/2000/svg"
   xmlns:svg="http://www.w3.org/2000/svg"
   xmlns:rdf="http://www.w3.org/1999/02/22-rdf-syntax-ns#"
   xmlns:cc="http://creativecommons.org/ns#"
   xmlns:dc="http://purl.org/dc/elements/1.1/">
  <metadata
     id="metadata10">
    <rdf:RDF>
      <cc:Work
         rdf:about="">
        <dc:format>image/svg+xml</dc:format>
        <dc:type
           rdf:resource="http://purl.org/dc/dcmitype/StillImage" />
      </cc:Work>
    </rdf:RDF>
  </metadata>
  <defs
     id="defs8" />
  <!--! Font Awesome Pro 6.4.2 by @fontawesome - https://fontawesome.com License - https://fontawesome.com/license (Commercial License) Copyright 2023 Fonticons, Inc. -->
  <path
     d="m 428.16804,135.50523 c 14.29018,-14.29017 14.29018,-37.497425 0,-51.787595 -14.29018,-14.29018 -37.49742,-14.29018 -51.7876,0 L 256,204.2124 135.50523,83.831955 c -14.29018,-14.29018 -37.497422,-14.29018 -51.787598,0 -14.290175,14.29017 -14.290175,37.497425 0,51.787605 L 204.2124,256 83.831957,376.49477 c -14.290179,14.29018 -14.290179,37.49741 0,51.7876 14.290176,14.29017 37.497423,14.29017 51.787593,0 L 256,307.78759 376.49477,428.16804 c 14.29017,14.29017 37.49742,14.29017 51.7876,0 14.29017,-14.29017 14.29017,-37.49742 0,-51.7876 L 307.7876,256 Z"
     id="path2"
     style="stroke-width:1.14321411" />
</svg>
