<?xml version="1.0" encoding="UTF-8" standalone="no"?>
<svg
   viewBox="0 0 511.99997 511.99997"
   version="1.1"
   id="svg187"
   width="512"
   height="512"
   xmlns="http://www.w3.org/2000/svg"
   xmlns:svg="http://www.w3.org/2000/svg">
  <defs
     id="defs181">
    <style
       id="style179">.cls-1{fill:#5398b2;}</style>
  </defs>
  <g
     id="Layer_2"
     data-name="Layer 2"
     transform="matrix(7.8878413,0,0,7.8878413,2.1995915e-4,0.15786743)"
     style="fill:#000000;fill-opacity:1">
    <g
       id="Layer_1-2"
       data-name="Layer 1"
       style="fill:#000000;fill-opacity:1">
      <path
         class="cls-1"
         d="m 64.91,56.8 v 2 a 6.08,6.08 0 0 1 -6.08,6.08 H 6.09 A 6.09,6.09 0 0 1 0,58.83 v -2 A 16.23,16.23 0 0 1 16.23,40.57 h 7 a 22.07,22.07 0 0 0 18.49,0 h 7 A 16.23,16.23 0 0 1 64.91,56.8 Z M 14.2,18.26 A 18.26,18.26 0 1 1 32.46,36.51 18.27,18.27 0 0 1 14.2,18.26 Z"
         id="path183"
         style="fill:#000000;fill-opacity:1" />
    </g>
  </g>
</svg>
