<?xml version="1.0" encoding="UTF-8" standalone="no"?>
<svg
   viewBox="0 0 512 512"
   version="1.1"
   id="svg4"
   width="512"
   height="512"
   xmlns="http://www.w3.org/2000/svg"
   xmlns:svg="http://www.w3.org/2000/svg"
   xmlns:rdf="http://www.w3.org/1999/02/22-rdf-syntax-ns#"
   xmlns:cc="http://creativecommons.org/ns#"
   xmlns:dc="http://purl.org/dc/elements/1.1/">
  <metadata
     id="metadata10">
    <rdf:RDF>
      <cc:Work
         rdf:about="">
        <dc:format>image/svg+xml</dc:format>
        <dc:type
           rdf:resource="http://purl.org/dc/dcmitype/StillImage" />
      </cc:Work>
    </rdf:RDF>
  </metadata>
  <defs
     id="defs8" />
  <!--! Font Awesome Pro 6.4.2 by @fontawesome - https://fontawesome.com License - https://fontawesome.com/license (Commercial License) Copyright 2023 Fonticons, Inc. -->
  <path
     id="path464"
     style="fill:#000000;fill-opacity:1;stroke-width:18;stroke-linecap:round;stroke-linejoin:round;stroke:none;stroke-opacity:1"
     d="M 256 0 A 256 256 0 0 0 0 256 A 256 256 0 0 0 256 512 A 256 256 0 0 0 512 256 A 256 256 0 0 0 256 0 z M 413.32617 128 C 422.2589 128 431.19282 131.38031 437.95703 138.14453 A 8.6006079 8.6006079 0 0 1 438.20703 138.55078 C 451.36039 152.11175 451.27764 174.00168 437.875 187.4043 L 228.22852 397.05273 C 214.70008 410.58115 192.49718 410.58115 178.96875 397.05273 L 74.146484 292.22852 C 60.618057 278.7001 60.618057 256.49719 74.146484 242.96875 C 87.674913 229.44033 109.87586 229.44033 123.4043 242.96875 L 203.63672 323.125 L 388.69727 138.14453 C 395.46148 131.38031 404.39343 128 413.32617 128 z " />
</svg>
