<?xml version="1.0" encoding="UTF-8" standalone="no"?>
<!-- Created with Inkscape (http://www.inkscape.org/) -->

<svg
   width="16"
   height="16"
   viewBox="0 0 4.2333333 4.2333332"
   version="1.1"
   id="svg468"
   xmlns="http://www.w3.org/2000/svg"
   xmlns:svg="http://www.w3.org/2000/svg">
  <defs
     id="defs465" />
  <g
     id="layer1">
    <path
       id="rect589"
       style="color:#000000;fill:#000000;stroke-linecap:round;stroke-linejoin:round;-inkscape-stroke:none"
       d="M 0.79271646 0 C 0.35755674 0 0 0.35755674 0 0.79271646 L 0 1.3229166 L 0.52916666 1.3229166 L 0.52916666 0.79271646 C 0.52916666 0.64156129 0.64156129 0.52916666 0.79271646 0.52916666 L 1.3229166 0.52916666 L 1.3229166 0 L 0.79271646 0 z M 2.9104166 0 L 2.9104166 0.52916666 L 3.4395833 0.52916666 C 3.5907384 0.52916666 3.7052001 0.64156129 3.7052001 0.79271646 L 3.7052001 1.3229166 L 4.2322997 1.3229166 L 4.2322997 0.79271646 C 4.2322997 0.35755674 3.8747429 0 3.4395833 0 L 2.9104166 0 z M 0 2.9104166 L 0 3.4395833 C 0 3.8747429 0.35755674 4.2322997 0.79271646 4.2322997 L 1.3229166 4.2322997 L 1.3229166 3.7052001 L 0.79271646 3.7052001 C 0.64156129 3.7052001 0.52916666 3.5907384 0.52916666 3.4395833 L 0.52916666 2.9104166 L 0 2.9104166 z M 3.7052001 2.9104166 L 3.7052001 3.4395833 C 3.7052001 3.5907384 3.5907384 3.7052001 3.4395833 3.7052001 L 2.9104166 3.7052001 L 2.9104166 4.2322997 L 3.4395833 4.2322997 C 3.8747429 4.2322997 4.2322997 3.8747429 4.2322997 3.4395833 L 4.2322997 2.9104166 L 3.7052001 2.9104166 z " />
  </g>
  <rect
     style="fill:#000000;stroke-width:0.529167;stroke-linecap:round;stroke-linejoin:round"
     id="rect288"
     width="0.79374999"
     height="0.79374999"
     x="2.5135417"
     y="2.5135417" />
  <rect
     style="fill:#000000;stroke-width:0.529167;stroke-linecap:round;stroke-linejoin:round"
     id="rect288-4"
     width="0.79374999"
     height="0.79374999"
     x="1.7197917"
     y="1.7197917" />
  <rect
     style="fill:#000000;stroke-width:0.529167;stroke-linecap:round;stroke-linejoin:round"
     id="rect288-5"
     width="0.79374999"
     height="0.79374999"
     x="0.92604166"
     y="0.92604166" />
  <rect
     style="fill:#000000;stroke-width:0.529167;stroke-linecap:round;stroke-linejoin:round"
     id="rect288-4-3"
     width="0.79374999"
     height="0.79374999"
     x="2.5135417"
     y="0.92604166" />
  <rect
     style="fill:#000000;stroke-width:0.529167;stroke-linecap:round;stroke-linejoin:round"
     id="rect288-4-2"
     width="0.79374999"
     height="0.79374999"
     x="0.92604166"
     y="2.5135417" />
</svg>
