<?xml version="1.0" encoding="UTF-8" standalone="no"?>
<!-- Created with Inkscape (http://www.inkscape.org/) -->

<svg
   width="1152"
   height="90"
   viewBox="0 0 304.80002 23.8125"
   version="1.1"
   id="svg18387"
   xmlns="http://www.w3.org/2000/svg"
   xmlns:svg="http://www.w3.org/2000/svg"
   xmlns:rdf="http://www.w3.org/1999/02/22-rdf-syntax-ns#"
   xmlns:cc="http://creativecommons.org/ns#"
   xmlns:dc="http://purl.org/dc/elements/1.1/">
  <metadata
     id="metadata19">
    <rdf:RDF>
      <cc:Work
         rdf:about="">
        <dc:format>image/svg+xml</dc:format>
        <dc:type
           rdf:resource="http://purl.org/dc/dcmitype/StillImage" />
      </cc:Work>
    </rdf:RDF>
  </metadata>
  <defs
     id="defs18384" />
  <g
     id="layer1">
    <g
       id="g738"
       transform="matrix(0.30658782,0,0,0.30658782,-21.306711,-12.341503)">
      <g
         aria-label="N"
         id="text20794-0-1"
         style="font-size:105.833px;fill:#f3eadd;stroke-width:0.264583">
        <path
           d="M 358.7853,116.89029 H 348.65675 L 307.47076,53.43183 h -0.41341 q 0.15503,2.532137 0.36174,5.787742 0.2067,3.203929 0.31005,6.872944 0.15503,3.617339 0.15503,7.389707 v 43.408067 h -8.16485 V 41.339583 h 10.07687 l 41.03096,63.251757 h 0.36174 q -0.10336,-1.80867 -0.25839,-5.115954 -0.15502,-3.358957 -0.31005,-7.183001 -0.10336,-3.87572 -0.10336,-7.183002 v -43.7698 h 8.26821 z"
           style="font-family:'Open Sans';-inkscape-font-specification:'Open Sans';text-align:center;text-anchor:middle;fill:#373844"
           id="path790" />
      </g>
      <g
         aria-label="E"
         id="text20794-0"
         style="font-size:105.833px;fill:#f3eadd;stroke-width:0.264583">
        <path
           d="M 234.66261,116.89029 H 192.59813 V 41.339583 h 42.06448 v 7.751441 h -33.27952 v 24.442875 h 31.3675 v 7.648088 h -31.3675 v 27.956863 h 33.27952 z"
           style="font-family:'Open Sans';-inkscape-font-specification:'Open Sans';text-align:center;text-anchor:middle;fill:#373844"
           id="path793" />
      </g>
      <g
         aria-label="S"
         id="text20794"
         style="font-size:105.833px;fill:#f3eadd;stroke-width:0.264583">
        <path
           d="m 118.0588,96.78822 q 0,6.71792 -3.35896,11.47213 -3.30728,4.70254 -9.30173,7.183 -5.994443,2.48046 -14.107617,2.48046 -4.28913,0 -8.113174,-0.41341 -3.824044,-0.41341 -7.027973,-1.18855 -3.203929,-0.77514 -5.632713,-1.91202 v -8.42323 q 3.87572,1.60196 9.456757,2.99722 5.581037,1.34358 11.678837,1.34358 5.68439,0 9.611783,-1.49861 3.9274,-1.55029 5.94277,-4.39248 2.06705,-2.89387 2.06705,-6.924622 0,-3.87572 -1.70531,-6.459534 -1.70532,-2.635489 -5.68439,-4.754216 -3.927398,-2.170404 -10.748666,-4.599188 -4.805893,-1.705317 -8.474908,-3.720692 -3.669015,-2.067051 -6.149476,-4.650864 -2.480461,-2.583813 -3.772368,-5.994447 -1.24023,-3.410634 -1.24023,-7.803117 0,-6.046124 3.0489,-10.335254 3.100576,-4.340807 8.526584,-6.614562 5.477685,-2.325433 12.557334,-2.325433 6.04612,0 11.16207,1.136878 5.16763,1.136878 9.45676,3.0489 l -2.73884,7.544736 q -4.08243,-1.705317 -8.68161,-2.842195 -4.54752,-1.136878 -9.405085,-1.136878 -4.85757,0 -8.216527,1.446935 -3.307282,1.39526 -5.064275,3.979073 -1.756993,2.583814 -1.756993,6.149476 0,3.979073 1.653641,6.614563 1.705317,2.63549 5.374332,4.70254 3.720691,2.015375 9.818491,4.237454 6.666236,2.428785 11.317106,5.167627 4.65086,2.687166 7.07965,6.614563 2.42878,3.87572 2.42878,9.870167 z"
           style="font-family:'Open Sans';-inkscape-font-specification:'Open Sans';text-align:center;text-anchor:middle;fill:#373844"
           id="path796" />
      </g>
      <g
         aria-label="E"
         id="text20794-0-1-8"
         style="font-size:105.833px;fill:#f3eadd;stroke-width:0.264583">
        <path
           d="M 704.90121,116.89029 H 662.83673 V 41.339583 h 42.06448 v 7.751441 H 671.6217 v 24.442875 h 31.36749 v 7.648088 H 671.6217 v 27.956863 h 33.27951 z"
           style="font-family:'Open Sans';-inkscape-font-specification:'Open Sans';text-align:center;text-anchor:middle;fill:#373844"
           id="path799" />
      </g>
      <g
         aria-label="E"
         id="text20794-0-2"
         style="font-size:105.833px;fill:#f3eadd;stroke-width:0.264583">
        <path
           d="M 587.34158,116.89029 H 545.2771 V 41.339583 h 42.06448 v 7.751441 h -33.27952 v 24.442875 h 31.3675 v 7.648088 h -31.3675 v 27.956863 h 33.27952 z"
           style="font-family:'Open Sans';-inkscape-font-specification:'Open Sans';text-align:center;text-anchor:middle;fill:#373844"
           id="path802" />
      </g>
      <g
         aria-label="S"
         id="text20794-5"
         style="font-size:105.833px;fill:#f3eadd;stroke-width:0.264583">
        <path
           d="m 470.73793,96.78822 q 0,6.71792 -3.35896,11.47213 -3.30728,4.70254 -9.30172,7.183 -5.99445,2.48046 -14.10763,2.48046 -4.28913,0 -8.11317,-0.41341 -3.82404,-0.41341 -7.02797,-1.18855 -3.20393,-0.77514 -5.63272,-1.91202 v -8.42323 q 3.87572,1.60196 9.45676,2.99722 5.58104,1.34358 11.67884,1.34358 5.68439,0 9.61178,-1.49861 3.9274,-1.55029 5.94277,-4.39248 2.06706,-2.89387 2.06706,-6.924622 0,-3.87572 -1.70532,-6.459534 -1.70532,-2.635489 -5.68439,-4.754216 -3.9274,-2.170404 -10.74867,-4.599188 -4.80589,-1.705317 -8.4749,-3.720692 -3.66902,-2.067051 -6.14948,-4.650864 -2.48046,-2.583813 -3.77237,-5.994447 -1.24023,-3.410634 -1.24023,-7.803117 0,-6.046124 3.0489,-10.335254 3.10058,-4.340807 8.52659,-6.614562 5.47768,-2.325433 12.55733,-2.325433 6.04612,0 11.16207,1.136878 5.16763,1.136878 9.45676,3.0489 l -2.73884,7.544736 q -4.08243,-1.705317 -8.68161,-2.842195 -4.54752,-1.136878 -9.40508,-1.136878 -4.85757,0 -8.21653,1.446935 -3.30728,1.39526 -5.06428,3.979073 -1.75699,2.583814 -1.75699,6.149476 0,3.979073 1.65364,6.614563 1.70532,2.63549 5.37433,4.70254 3.72069,2.015375 9.81849,4.237454 6.66624,2.428785 11.31711,5.167627 4.65086,2.687166 7.07965,6.614563 2.42878,3.87572 2.42878,9.870167 z"
           style="font-family:'Open Sans';-inkscape-font-specification:'Open Sans';text-align:center;text-anchor:middle;fill:#373844"
           id="path805" />
      </g>
      <g
         aria-label="T"
         id="text20794-0-1-3"
         style="font-size:105.833px;fill:#f3eadd;stroke-width:0.264583">
        <path
           d="m 1038.9768,116.89029 h -8.8366 V 49.091024 h -23.7711 v -7.751441 h 56.2755 v 7.751441 h -23.6678 z"
           style="font-family:'Open Sans';-inkscape-font-specification:'Open Sans';text-align:center;text-anchor:middle;fill:#373844"
           id="path808" />
      </g>
      <g
         aria-label="C"
         id="text20794-0-9"
         style="font-size:105.833px;fill:#f3eadd;stroke-width:0.264583">
        <path
           d="m 926.32639,48.005822 q -6.25283,0 -11.26543,2.170403 -4.96092,2.118727 -8.47491,6.201153 -3.46231,4.030749 -5.32265,9.766815 -1.86035,5.736065 -1.86035,12.919067 0,9.508434 2.94555,16.536406 2.99722,6.976294 8.88832,10.800344 5.94277,3.82404 14.83109,3.82404 5.06427,0 9.50843,-0.82682 4.49583,-0.8785 8.73329,-2.1704 v 7.64808 q -4.1341,1.55029 -8.68161,2.27376 -4.54752,0.77514 -10.80035,0.77514 -11.5238,0 -19.27524,-4.75421 -7.69977,-4.8059 -11.57549,-13.539185 -3.82404,-8.733289 -3.82404,-20.618831 0,-8.578261 2.37711,-15.65791 2.42878,-7.131325 7.02797,-12.298952 4.65086,-5.167627 11.36878,-7.958146 6.76959,-2.842195 15.50288,-2.842195 5.73607,0 11.05872,1.136878 5.32266,1.136878 9.61179,3.255605 l -3.51399,7.441383 q -3.61734,-1.65364 -7.95814,-2.842195 -4.28914,-1.24023 -9.30173,-1.24023 z"
           style="font-family:'Open Sans';-inkscape-font-specification:'Open Sans';text-align:center;text-anchor:middle;fill:#373844"
           id="path811" />
      </g>
      <g
         aria-label="A"
         id="text20794-6"
         style="font-size:105.833px;fill:#f3eadd;stroke-width:0.264583">
        <path
           d="M 823.69786,116.89029 814.39613,92.9125 h -30.28229 l -9.25005,23.97779 h -8.88832 l 29.55882,-75.860764 h 7.90647 l 29.35212,75.860764 z M 811.76064,85.109383 802.924,61.286623 q -0.31006,-0.930173 -1.03353,-3.0489 -0.67179,-2.118727 -1.39525,-4.392483 -0.72347,-2.273755 -1.18856,-3.669015 -0.51676,2.118727 -1.13688,4.237454 -0.56844,2.067051 -1.13687,3.875721 -0.56844,1.756993 -0.98185,2.997223 l -8.99167,23.82276 z"
           style="font-family:'Open Sans';-inkscape-font-specification:'Open Sans';text-align:center;text-anchor:middle;fill:#373844"
           id="path814" />
      </g>
    </g>
  </g>
</svg>
